<svg width="49" height="50" viewBox="0 0 49 50" fill="none" xmlns="http://www.w3.org/2000/svg">
<rect width="49" height="50" fill="#E5E5E5"/>
<g id="Home 1" clip-path="url(#clip0_0_1)">
<rect width="1440" height="4989" transform="translate(-394 -2148)" fill="white"/>
<g id="About Us">
<g id="Background Bubble">
<path id="Bubble 2" d="M848.052 -560.211C977.799 -592.499 1003.94 -647.05 1047.15 -700V-13.764C1018.48 34.8091 957.209 117.18 923.454 154.83C868.386 216.252 734.827 306.479 626.385 318.764C546.787 327.781 282.967 370.867 160.97 170.927C-31.6954 -144.83 279.119 -380.882 359.216 -419.999C596.01 -535.642 756.131 -537.337 848.052 -560.211Z" fill="url(#paint0_linear_0_1)"/>
<path id="Bubble 1" d="M861.475 -554.452C982.394 -584.547 1006.76 -635.395 1047.02 -684.75V-45.102C1020.31 0.173523 963.205 76.9522 931.746 112.046C880.425 169.299 755.954 253.401 654.89 264.851C580.708 273.256 334.838 313.417 221.141 127.05C41.5847 -167.27 331.251 -387.296 405.898 -423.758C626.581 -531.551 775.808 -533.13 861.475 -554.452Z" fill="url(#paint1_linear_0_1)"/>
</g>
<g id="Play Button">
<g id="Play_button">
<circle id="Ellipse BG" cx="24.5" cy="24.9382" r="24.5" fill="#091156"/>
<path id="Polygon Play" d="M32.1167 23.6145C33.45 24.3843 33.45 26.3088 32.1167 27.0786L22.8042 32.4551C21.4708 33.2249 19.8042 32.2627 19.8042 30.7231L19.8042 19.9699C19.8042 18.4303 21.4708 17.4681 22.8042 18.2379L32.1167 23.6145Z" fill="white"/>
</g>
</g>
</g>
</g>
<defs>
<linearGradient id="paint0_linear_0_1" x1="577.448" y1="-700" x2="577.448" y2="343.602" gradientUnits="userSpaceOnUse">
<stop stop-color="#EAECFF"/>
<stop offset="1" stop-color="white" stop-opacity="0"/>
</linearGradient>
<linearGradient id="paint1_linear_0_1" x1="609.283" y1="-684.75" x2="609.283" y2="288.003" gradientUnits="userSpaceOnUse">
<stop stop-color="#E4E7FF"/>
<stop offset="1" stop-color="white" stop-opacity="0"/>
</linearGradient>
<clipPath id="clip0_0_1">
<rect width="1440" height="4989" fill="white" transform="translate(-394 -2148)"/>
</clipPath>
</defs>
</svg>
